# xmcd
#
# Track frame offsets: 
#        150
#        27713
#        43353
#        63081
#        78418
#        106995
#        120833
#        138684
#        155215
#        182930
#
# Disc length: 2801 seconds
#
# Revision: 0
# Processed by: cddbd v1.5.2PL0 Copyright (c) Steve Scherf et al.
# Submitted via: ExactAudioCopy v0.99pb4
#
DISCID=8e0aef0a
DTITLE=Leon Haywood - It's Me Again
DYEAR=1983
DGENRE=Funk
TTITLE0=T.V Mama
TTITLE1=Desire
TTITLE2=I'll Always Be Around
TTITLE3=Secret Rendezvous
TTITLE4=I'm Out To Catch
TTITLE5=Keep It In The Family
TTITLE6=I Wanna Do Something Freaky To You
TTITLE7=Steppin' Out
TTITLE8=I'm Out To Catch (Club Mix)
TTITLE9=Tenderoni
EXTD=
EXTT0=
EXTT1=
EXTT2=
EXTT3=
EXTT4=
EXTT5=
EXTT6=
EXTT7=
EXTT8=
EXTT9=
PLAYORDER=
